<svg width="32" height="32" viewBox="0 0 32 32" fill="none" xmlns="http://www.w3.org/2000/svg">
<path d="M10.4 2.66675H21.6C25.871 2.66675 29.3334 6.12908 29.3334 10.4001V21.6001C29.3334 25.8711 25.871 29.3334 21.6 29.3334H10.4C6.12902 29.3334 2.66669 25.8711 2.66669 21.6001V10.4001C2.66669 6.12908 6.12902 2.66675 10.4 2.66675ZM10.1334 5.33339C7.48238 5.33339 5.33335 7.48243 5.33335 10.1334V21.8667C5.33335 24.5177 7.48238 26.6667 10.1334 26.6667H21.8667C24.5176 26.6667 26.6667 24.5177 26.6667 21.8667V10.1334C26.6667 7.48243 24.5176 5.33339 21.8667 5.33339H10.1334ZM23 7.33339C23.9206 7.33339 24.6667 8.07959 24.6667 9.00005C24.6667 9.92054 23.9206 10.6667 23 10.6667C22.0795 10.6667 21.3334 9.92054 21.3334 9.00005C21.3334 8.07959 22.0795 7.33339 23 7.33339ZM16 9.33339C19.6819 9.33339 22.6667 12.3182 22.6667 16.0001C22.6667 19.6819 19.6819 22.6667 16 22.6667C12.3181 22.6667 9.33335 19.6819 9.33335 16.0001C9.33335 12.3182 12.3181 9.33339 16 9.33339ZM16 12.0001C13.7908 12.0001 12 13.791 12 16.0001C12 18.2093 13.7908 20.0001 16 20.0001C18.2092 20.0001 20 18.2093 20 16.0001C20 13.791 18.2092 12.0001 16 12.0001Z" fill="white"/>
</svg>
