<svg width="90" height="98" viewBox="0 0 90 98" fill="none" xmlns="http://www.w3.org/2000/svg">
<path fill-rule="evenodd" clip-rule="evenodd" d="M44.4093 2.66679C47.2421 2.08102 47.9563 6.35321 45.2688 6.91761C42.4599 7.50752 41.3438 3.30073 44.4093 2.66679ZM43.4511 16.7209L43.4491 9.58432V9.58426C43.2788 9.45646 43.0566 9.32437 42.8065 9.17572C41.5648 8.43743 39.636 7.2907 39.9587 4.23228C40.5547 -1.41643 48.9407 -1.37973 49.5816 4.15631C49.9436 7.28345 48.0404 8.39914 46.491 9.30749L46.4908 9.30758L46.4907 9.30767L46.4905 9.30777C46.3589 9.38491 46.2299 9.46056 46.105 9.53582L46.0951 16.7284L43.4511 16.7209ZM24.1657 41.4375L21.517 41.4015H21.5169C21.592 25.6086 38.9134 14.0847 54.3186 20.9564C62.0819 24.4193 68.003 32.6046 68.0173 41.4043L65.3825 41.4143C65.0233 30.3805 56.0568 21.6036 44.7863 21.5704C33.519 21.5372 24.5674 30.4846 24.1657 41.4375ZM37.6045 87.6868C37.8363 87.7977 38.0681 87.9085 38.2995 88.0061L38.2994 88.0062C38.9563 88.283 39.5124 88.5106 39.9828 88.7031C41.6309 89.3775 42.2264 89.6212 42.4152 90.0457C42.522 90.2859 42.4986 90.5839 42.462 91.0505C42.4041 91.7883 42.3131 92.9477 42.6515 94.9665L46.9185 94.9962C47.209 93.0405 47.1298 91.8814 47.0785 91.1304C47.0433 90.6142 47.0212 90.2907 47.1414 90.0339C47.343 89.6033 47.9448 89.3599 49.5559 88.7086L49.556 88.7085L49.5561 88.7085C49.9989 88.5295 50.5179 88.3196 51.1258 88.0666C51.3474 87.9744 51.5795 87.863 51.8183 87.7484L51.8185 87.7483L51.8187 87.7482C52.9315 87.2141 54.1872 86.6115 55.1897 87.5579C55.4677 87.8204 55.7635 88.1373 56.0701 88.4656C56.736 89.1789 57.4525 89.9464 58.1464 90.3278C58.4574 90.0213 58.7703 89.7225 59.0816 89.4252C59.8013 88.7379 60.5122 88.059 61.1714 87.3129C60.7153 86.8993 60.3151 86.4518 59.9066 85.9949C59.46 85.4954 59.0034 84.9847 58.4525 84.4947C57.3752 83.5366 57.8028 82.6362 58.354 81.4755C58.4775 81.2155 58.6072 80.9424 58.7276 80.6527C59.0104 79.9718 59.235 79.3989 59.424 78.9168C59.9524 77.5688 60.2025 76.9306 60.6698 76.6286C61.09 76.3571 61.6856 76.3573 62.8167 76.3575C63.538 76.3577 64.4771 76.3578 65.7272 76.2877L65.8466 74.1779L68.4765 74.1027C68.4633 74.8028 68.4745 75.4034 68.484 75.9186V75.9186V75.9187C68.5071 77.1598 68.5209 77.9054 68.1624 78.3525C67.6228 79.0254 66.2394 79.0217 62.7739 79.0126L62.2286 79.0112C61.8052 80.5432 61.3607 81.3992 61.0698 81.9595C60.54 82.9798 60.5197 83.019 62.064 84.3741C65.2651 87.1831 64.4701 87.929 63.2651 89.0596C63.1548 89.163 63.0412 89.2696 62.9269 89.3813C62.7975 89.5077 62.5803 89.7296 62.3085 90.0073L62.3084 90.0074L62.3083 90.0074C61.1482 91.1925 58.9941 93.3929 58.4358 93.5175C57.5971 93.7047 56.2539 92.3854 55.1243 91.276C54.5306 90.6929 53.996 90.1677 53.6245 89.9496C52.9534 90.151 49.8383 91.2469 49.7012 91.7974C49.6982 92.0584 49.6974 92.3298 49.6966 92.6075V92.6078V92.6081V92.6085C49.6916 94.303 49.6861 96.2291 49.1729 97.4147C47.7166 97.8458 41.8091 97.8495 40.3732 97.426C39.8428 96.29 39.8503 94.3742 39.8569 92.7127C39.8581 92.396 39.8593 92.0885 39.8568 91.7974C39.4703 91.1019 36.6049 90.0634 35.7067 89.9512C35.5236 90.1644 35.3832 90.2969 35.2206 90.4505C35.127 90.5389 35.0261 90.6342 34.9054 90.7558L34.7121 90.9507C32.9648 92.7125 32.1603 93.5238 31.3856 93.4962C30.7244 93.4727 30.0849 92.8379 28.8997 91.6615C28.6483 91.4119 28.3723 91.1379 28.0663 90.8402C27.7901 90.5715 27.506 90.3122 27.2293 90.0598L27.2292 90.0597C25.9168 88.8623 24.7717 87.8175 25.4318 86.6364C25.7756 86.0212 26.4831 85.3722 27.1872 84.7262L27.1873 84.7262C27.8577 84.1112 28.525 83.499 28.8726 82.9214L27.2985 79.0417C26.8124 79.021 26.2773 79.0235 25.7258 79.026C24.1329 79.0334 22.4038 79.0414 21.3285 78.493C20.9852 77.3918 21.0436 75.7489 21.092 74.3884L21.102 74.1035L23.712 74.1449L23.7673 76.2995C24.6673 76.3106 25.4094 76.3026 26.0268 76.2959H26.027H26.0272H26.0274H26.0275H26.0277H26.0278C27.6285 76.2786 28.391 76.2703 28.8952 76.6271C29.3539 76.9516 29.5989 77.578 30.0667 78.7742L30.0667 78.7743C30.2557 79.2575 30.4811 79.8337 30.7716 80.5206C30.94 80.919 31.1001 81.256 31.2404 81.5512L31.2404 81.5513C32.1448 83.455 32.2243 83.6223 28.404 87.3007L31.4092 90.36C31.8181 90.098 32.2179 89.7463 32.6139 89.398L32.614 89.3979L32.6142 89.3978C32.7084 89.3149 32.8024 89.2322 32.8962 89.151C33.2196 88.871 33.4262 88.6047 33.6349 88.3358C33.813 88.1062 33.9926 87.8747 34.2478 87.631C35.3286 86.5985 36.4666 87.1427 37.6045 87.6868ZM57.365 74.1186L54.7334 74.1388C54.2922 86.8605 35.7916 87.6042 34.8016 74.2104L32.1917 74.0928C32.0858 81.1624 37.9069 86.6412 44.7863 86.6494C51.7886 86.6577 57.3131 81.1084 57.3651 74.1187L57.365 74.1186ZM39.5947 32.6972H33.4212C33.0518 32.6972 32.7524 32.9968 32.7524 33.3665V34.5631C32.7524 34.9328 33.0518 35.2325 33.4212 35.2325H39.5947C39.9641 35.2325 40.2635 34.9328 40.2635 34.5631V33.3665C40.2635 32.9968 39.9641 32.6972 39.5947 32.6972ZM49.9397 32.6972H51.7598V30.8756C51.7598 30.5059 52.0592 30.2062 52.4286 30.2062H53.6242C53.9936 30.2062 54.293 30.5059 54.293 30.8756V32.6972H56.1133C56.4826 32.6972 56.782 32.9968 56.782 33.3665V34.5631C56.782 34.9328 56.4826 35.2325 56.1133 35.2325H54.293V37.0543C54.293 37.424 53.9936 37.7237 53.6242 37.7237H52.4286C52.0592 37.7237 51.7598 37.424 51.7598 37.0543V35.2325H49.9397C49.5704 35.2325 49.2709 34.9328 49.2709 34.5631V33.3665C49.2709 32.9968 49.5704 32.6972 49.9397 32.6972ZM85.67 69.0785C83.0929 67.9299 81.964 71.8333 84.1854 72.685C86.4411 73.5497 88.1306 70.1752 85.67 69.0785ZM5.20965 29.8546C2.9051 28.9085 1.52293 32.4269 3.79903 33.4226C6.03036 34.3987 7.98763 30.995 5.20965 29.8546ZM5.90839 44.4855L5.92656 36.0439L5.92667 36.044C7.86813 35.272 9.64899 33.7379 9.11302 30.7548C8.73651 28.6591 6.90606 26.9783 4.45535 27.0343C-0.7189 27.1528 -1.72428 34.588 3.23757 36.0136C3.32093 37.6067 3.29983 39.3224 3.27924 40.9967C3.27072 41.6899 3.26228 42.3759 3.26138 43.0433C3.25905 44.7921 3.23332 45.5205 3.5618 46.0125C3.86433 46.4656 4.46728 46.7181 5.66564 47.3823C7.09586 48.175 8.50437 49.0057 9.91423 49.8373C11.3514 50.685 12.79 51.5335 14.2544 52.3433L14.1791 69.2651C14.1687 71.6227 14.3869 72.2069 16.3597 72.209L69.1955 72.198C72.7701 72.1823 74.2707 72.355 74.8801 71.6993C75.5226 71.0081 75.1745 69.3961 75.222 65.6717C75.2438 63.9667 75.2263 62.2434 75.2089 60.5185C75.1847 58.1279 75.1604 55.7342 75.2405 53.382C75.8272 53.4706 78.0107 54.7733 80.0514 55.9908C81.5242 56.8694 82.9227 57.7038 83.593 58.0054L83.5764 66.2888C83.223 66.6036 82.9148 66.7555 82.6166 66.9025C82.1481 67.1334 81.7044 67.3521 81.1496 68.1704C80.5432 69.065 80.1639 70.2502 80.3505 71.595C80.6467 73.7289 82.6414 75.5305 85.0191 75.4698C87.3837 75.4094 89.2462 73.5619 89.486 71.394C89.8048 68.5121 87.9619 67.3832 86.8421 66.6972C86.5917 66.5438 86.3774 66.4126 86.2316 66.2888C86.2214 64.4565 86.2247 62.6224 86.2281 60.7889C86.2289 60.3593 86.2297 59.9297 86.2303 59.5001C86.233 57.6382 86.2751 56.9407 85.9609 56.4934C85.6672 56.0751 85.0619 55.8756 83.8214 55.1475L75.2575 50.1403C75.217 49.5983 75.2346 48.9172 75.2541 48.1666C75.2804 47.1471 75.3101 45.9995 75.2021 44.8984C75.0852 43.7078 74.302 43.5052 73.2157 43.5046L15.9576 43.4676C15.358 43.4673 14.5576 43.9099 14.4811 45.3253L14.2714 49.2027C13.3969 48.8978 11.7052 47.8628 9.99532 46.8167C8.45191 45.8724 6.8937 44.9191 5.90839 44.4855ZM63.1079 65.3868C64.7653 65.3868 65.9807 64.854 66.945 63.8789C68.3613 62.4614 68.4115 60.8428 68.4115 58.1084C68.4115 55.374 68.3613 53.7555 66.945 52.3379C65.9807 51.3628 64.7653 50.83 63.1079 50.83C61.4506 50.83 60.2352 51.3628 59.2709 52.3379C57.8546 53.7555 57.8043 55.374 57.8043 58.1084C57.8043 60.8428 57.8546 62.4614 59.2709 63.8789C60.2351 64.854 61.4505 65.3868 63.1079 65.3868ZM63.1079 53.3231C63.8713 53.3231 64.5041 53.6247 64.9059 54.0871C65.4383 54.6903 65.599 55.3739 65.599 58.1084C65.599 60.8428 65.4383 61.5164 64.9059 62.1195C64.5042 62.5719 63.8714 62.8937 63.1079 62.8937C62.3445 62.8937 61.7118 62.5719 61.3099 62.1195C60.7776 61.5164 60.6168 60.8428 60.6168 58.1084C60.6168 55.3739 60.7776 54.6903 61.3099 54.0871C61.7117 53.6247 62.3445 53.3231 63.1079 53.3231ZM55.1777 65.2661H49.2012C48.7893 65.2661 48.2771 65.2661 47.8853 64.874C47.4936 64.482 47.4936 63.9693 47.4936 63.5571V52.7601C47.4936 52.1066 47.5137 51.8754 47.6845 51.5336C47.8953 51.1415 48.3474 50.8701 48.8998 50.8701C49.4523 50.8701 49.9043 51.1415 50.1153 51.5336C50.286 51.8754 50.3061 52.1066 50.3061 52.7601V62.7729H55.1777C55.7704 62.7729 56.0014 62.7931 56.2725 62.9338C56.6241 63.1148 56.8652 63.5269 56.8652 64.0195C56.8652 64.5121 56.6241 64.9242 56.2725 65.1053C56.0014 65.246 55.7704 65.2661 55.1777 65.2661ZM23.0349 65.2659H26.5103C28.459 65.2659 29.7548 64.6426 30.8295 63.1749C31.7335 61.9484 31.7536 60.4806 31.7536 58.1081C31.7536 55.7355 31.7335 54.2678 30.8295 53.0413C29.7547 51.5736 28.459 50.9503 26.5103 50.9503H23.0349C22.623 50.9503 22.1108 50.9503 21.719 51.3424C21.3273 51.7344 21.3273 52.2471 21.3273 52.6593V63.5568C21.3273 63.969 21.3273 64.4817 21.719 64.8738C22.1107 65.2658 22.6229 65.2659 23.0347 65.2659H23.0349ZM24.1398 53.4435H26.2693C27.2135 53.4435 27.8965 53.7451 28.3586 54.3282C28.8809 54.9816 28.9412 55.8562 28.9412 58.1082C28.9412 60.36 28.8809 61.2347 28.3586 61.8881C27.8966 62.4712 27.2135 62.7728 26.2693 62.7728H24.1398V53.4435V53.4435ZM36.5901 65.2659H42.7173C43.3099 65.2659 43.5409 65.2458 43.8121 65.1051C44.1637 64.924 44.4047 64.5119 44.4047 64.0193C44.4047 63.5267 44.1637 63.1146 43.8121 62.9336C43.5409 62.7929 43.3099 62.7727 42.7173 62.7727H37.6949V59.2944H41.753C42.3456 59.2944 42.5766 59.2742 42.8478 59.1335C43.1994 58.9526 43.4404 58.5404 43.4404 58.0478C43.4404 57.5552 43.1994 57.143 42.8478 56.962C42.5766 56.8213 42.3456 56.8012 41.753 56.8012H37.6949V53.4434H42.7173C43.3099 53.4434 43.5409 53.4233 43.8121 53.2826C44.1637 53.1017 44.4047 52.6894 44.4047 52.1969C44.4047 51.7042 44.1637 51.2921 43.8121 51.1111C43.5409 50.9704 43.3099 50.9503 42.7173 50.9503H36.5901C36.1782 50.9503 35.666 50.9503 35.2742 51.3424C34.8825 51.7344 34.8825 52.2471 34.8825 52.6593V63.5568C34.8825 63.969 34.8825 64.4817 35.2742 64.8738C35.6659 65.2658 36.1781 65.2659 36.5899 65.2659H36.5901Z" fill="url(#paint0_linear_35_1675)"/>
<defs>
<linearGradient id="paint0_linear_35_1675" x1="44.7612" y1="0" x2="44.7612" y2="97.7408" gradientUnits="userSpaceOnUse">
<stop offset="0.457171" stop-color="#FEFEFE"/>
<stop offset="1" stop-color="#1CF508"/>
</linearGradient>
</defs>
</svg>
