<svg width="48" height="48" viewBox="0 0 48 48" fill="none" xmlns="http://www.w3.org/2000/svg">
<rect width="48" height="48" rx="24" fill="#0499E4"/>
<g clip-path="url(#clip0_38_2062)">
<path fill-rule="evenodd" clip-rule="evenodd" d="M22.3876 33.5822C22.3794 33.3923 22.493 32.0111 22.5149 31.697C22.5338 31.423 22.5379 30.9774 22.5824 30.7302C22.5989 30.6382 22.8655 30.4156 22.9559 30.3383C23.2613 30.0776 23.7842 29.5742 24.0326 29.3698L25.6477 27.9273C25.6994 27.8802 25.7225 27.8492 25.7752 27.8069C25.9809 27.6412 26.2812 27.3394 26.4517 27.2026L26.7133 26.9682C26.7667 26.9177 26.7902 26.8919 26.8415 26.8491L27.9182 25.8806C28.0525 25.7579 28.0156 25.6296 27.7803 25.676C27.6584 25.7001 27.5302 25.7879 27.4449 25.8427C27.028 26.1114 26.619 26.3564 26.2011 26.6239C25.7839 26.8912 25.3643 27.1536 24.942 27.4109C24.5214 27.6675 24.1125 27.9427 23.6853 28.1998L21.1817 29.7673C21.0321 29.8628 21.0253 29.9178 20.8155 29.8487C19.9432 29.561 18.9522 29.3017 18.1035 29.0057C17.8818 28.9284 17.552 28.7522 17.7342 28.4586C17.848 28.275 18.1203 28.1624 18.3578 28.0703C18.8527 27.8785 19.3337 27.6999 19.8221 27.509C22.7538 26.3634 25.7346 25.25 28.6681 24.1143C29.1489 23.9283 29.8388 23.5264 30.1151 24.0967C30.2924 24.4625 30.0148 25.3904 29.9277 25.8019L28.3186 33.3464C28.2584 33.6342 28.2137 33.9002 28.0396 34.0802C27.833 34.2938 27.5544 34.2566 27.2883 34.1239C27.0571 34.0087 24.4852 32.0406 24.3422 31.9894C24.2021 32.1433 24.028 32.2803 23.8747 32.4282L22.9719 33.3017C22.8536 33.4201 22.6635 33.61 22.3869 33.5824L22.3876 33.5822ZM13.0105 28.8339C13.1127 31.1516 13.9386 33.4387 15.2635 35.1714C16.5161 36.8092 18.0897 38.1135 20.1149 38.9361C21.5554 39.521 23.2094 39.8663 24.9796 39.7895C27.375 39.6854 29.5661 38.8749 31.357 37.5467C32.2703 36.8694 33.2098 35.9487 33.8517 35.0221C33.9522 34.8769 34.0379 34.7544 34.1372 34.6053C36.3223 31.3254 36.6251 26.8762 34.8337 23.3167C33.9702 21.6009 33.0068 20.499 31.6079 19.3561C30.8944 18.7733 29.773 18.1288 28.892 17.7736C25.8371 16.542 22.3801 16.6174 19.4228 18.0844C18.7533 18.4164 18.1766 18.7747 17.6377 19.172C17.2106 19.4871 17.0039 19.691 16.6552 19.987C16.4044 20.1999 15.9998 20.643 15.7813 20.8892C13.9233 22.9832 12.8835 25.9616 13.0103 28.8339H13.0105Z" fill="white"/>
<path fill-rule="evenodd" clip-rule="evenodd" d="M22.3876 33.5822C22.6641 33.61 22.8543 33.4198 22.9726 33.3014L23.8754 32.4279C24.0286 32.28 24.2028 32.143 24.3429 31.9891C24.4859 32.0403 27.0578 34.0087 27.289 34.1237C27.5551 34.2563 27.8336 34.2936 28.0403 34.0799C28.2142 33.9002 28.2591 33.6339 28.3193 33.3461L29.9283 25.8016C30.0153 25.3901 30.2931 24.4623 30.1158 24.0964C29.8395 23.5262 29.1493 23.928 28.6688 24.1141C25.7353 25.25 22.7547 26.3632 19.8227 27.5088C19.3344 27.6994 18.8533 27.878 18.3584 28.0701C18.1209 28.1621 17.8487 28.2747 17.7348 28.4584C17.5527 28.752 17.8825 28.9281 18.1042 29.0054C18.9529 29.3014 19.9439 29.5607 20.8162 29.8485C21.026 29.9178 21.033 29.8625 21.1824 29.7671L23.686 28.1996C24.1132 27.9425 24.5221 27.667 24.9427 27.4107C25.3647 27.1533 25.7846 26.8909 26.2018 26.6237C26.6195 26.3562 27.0286 26.1109 27.4456 25.8425C27.5308 25.7876 27.659 25.6999 27.7809 25.6757C28.0163 25.6291 28.0532 25.7576 27.9189 25.8804L26.8421 26.8489C26.7907 26.8916 26.7673 26.9175 26.7139 26.968L26.4524 27.2024C26.2819 27.3391 25.9815 27.6409 25.7758 27.8067C25.7234 27.849 25.7001 27.8799 25.6484 27.927L24.0333 29.3696C23.7848 29.574 23.262 30.0771 22.9565 30.338C22.8662 30.4151 22.5996 30.6379 22.583 30.73C22.5386 30.9771 22.5345 31.4227 22.5155 31.6967C22.4939 32.0108 22.38 33.392 22.3883 33.5819L22.3876 33.5822Z" fill="#0499E4"/>
<path fill-rule="evenodd" clip-rule="evenodd" d="M17.8413 11.1046C19.6832 10.7259 20.1475 13.4875 18.4 13.8522C16.5739 14.2334 15.8481 11.5141 17.8413 11.1046ZM30.6836 11.1046C32.5255 10.7259 32.9898 13.4875 31.2424 13.8522C29.4163 14.2334 28.6904 11.5141 30.6836 11.1046ZM30.0593 15.576L30.0598 17.5929C30.6666 17.9067 31.2883 18.2878 31.7817 18.6587L31.7861 15.5445C32.8235 14.9231 34.3019 14.2605 34.0464 12.0672C33.6297 8.48888 28.1776 8.46496 27.79 12.1163C27.5379 14.4913 29.3986 15.0828 30.0593 15.5757V15.576ZM17.2169 15.576L17.2179 18.6664L17.2451 18.6464C17.7626 18.2646 18.3136 17.9171 18.9408 17.5933L18.9437 15.5448C19.9811 14.9233 21.4595 14.2608 21.2041 12.0675C20.7873 8.48912 15.3352 8.4652 14.9476 12.1165C14.6956 14.4915 16.5562 15.083 17.2169 15.576Z" fill="white"/>
</g>
<defs>
<clipPath id="clip0_38_2062">
<rect width="23" height="30.4194" fill="white" transform="translate(13 9.38062)"/>
</clipPath>
</defs>
</svg>
