<svg width="31" height="41" viewBox="0 0 31 41" fill="none" xmlns="http://www.w3.org/2000/svg">
<g clip-path="url(#clip0_35_1693)">
<path fill-rule="evenodd" clip-rule="evenodd" d="M12.6529 32.6193C12.6417 32.3634 12.7949 30.5018 12.8244 30.0784C12.8499 29.7091 12.8555 29.1085 12.9153 28.7754C12.9376 28.6513 13.297 28.3513 13.4187 28.2471C13.8305 27.8957 14.5352 27.2173 14.87 26.9418L17.0469 24.9975C17.1166 24.934 17.1477 24.8923 17.2187 24.8353C17.4959 24.6119 17.9008 24.2051 18.1306 24.0208L18.4831 23.7049C18.5551 23.6368 18.5868 23.602 18.6559 23.5443L20.1071 22.239C20.2881 22.0735 20.2384 21.9006 19.9212 21.9631C19.7569 21.9957 19.5841 22.1139 19.4692 22.1879C18.9072 22.55 18.3561 22.8803 17.7928 23.2408C17.2305 23.601 16.6649 23.9547 16.0957 24.3015C15.5288 24.6474 14.9777 25.0183 14.4019 25.3649L11.0275 27.4775C10.8259 27.6062 10.8167 27.6804 10.5339 27.5873C9.35825 27.1994 8.02253 26.85 6.87862 26.451C6.57979 26.3468 6.13532 26.1094 6.38079 25.7137C6.5343 25.4661 6.9012 25.3144 7.2213 25.1903C7.88834 24.9317 8.53672 24.691 9.19492 24.4337C13.1464 22.8897 17.164 21.389 21.1178 19.8583C21.7659 19.6075 22.6957 19.0659 23.0682 19.8345C23.3071 20.3276 22.933 21.5782 22.8155 22.1328L20.6468 32.3015C20.5657 32.6894 20.5054 33.0479 20.2708 33.2906C19.9922 33.5785 19.6168 33.5283 19.2581 33.3495C18.9465 33.1942 15.4801 30.5415 15.2873 30.4725C15.0984 30.6799 14.8638 30.8646 14.6572 31.0639L13.4403 32.2412C13.2809 32.4008 13.0247 32.6568 12.6519 32.6197L12.6529 32.6193ZM0.0141439 26.2194C0.151937 29.3433 1.26509 32.4259 3.05084 34.7613C4.73905 36.9688 6.85996 38.7268 9.58965 39.8354C11.5312 40.6239 13.7604 41.0893 16.1465 40.9857C19.375 40.8453 22.3282 39.753 24.742 37.9628C25.973 37.0499 27.2393 35.809 28.1044 34.5601C28.2399 34.3643 28.3554 34.1992 28.4893 33.9983C31.4343 29.5775 31.8425 23.5808 29.428 18.7832C28.2641 16.4706 26.9657 14.9855 25.0801 13.445C24.1185 12.6595 22.607 11.7909 21.4196 11.3122C17.3022 9.65217 12.6427 9.75378 8.65684 11.731C7.75447 12.1785 6.97714 12.6614 6.25086 13.1969C5.67513 13.6215 5.3966 13.8964 4.9266 14.2954C4.5885 14.5823 4.04321 15.1796 3.74864 15.5115C1.24447 18.3338 -0.157034 22.3481 0.0138166 26.2194H0.0141439Z" fill="#0499E4"/>
<path fill-rule="evenodd" clip-rule="evenodd" d="M12.6529 32.6194C13.0257 32.6569 13.2819 32.4005 13.4413 32.241L14.6582 31.0636C14.8648 30.8643 15.0994 30.6797 15.2883 30.4722C15.4811 30.5412 18.9475 33.1942 19.2591 33.3492C19.6178 33.528 19.9932 33.5782 20.2718 33.2903C20.5061 33.048 20.5667 32.6891 20.6478 32.3012L22.8165 22.1326C22.9337 21.5779 23.3081 20.3273 23.0692 19.8342C22.6967 19.0656 21.7666 19.6072 21.1188 19.858C17.165 21.389 13.1478 22.8894 9.19593 24.4335C8.53772 24.6904 7.88934 24.9311 7.2223 25.19C6.9022 25.3141 6.5353 25.4659 6.3818 25.7134C6.13632 26.1091 6.5808 26.3465 6.87962 26.4507C8.02354 26.8497 9.35925 27.1991 10.5349 27.587C10.8177 27.6805 10.8272 27.6059 11.0285 27.4773L14.403 25.3646C14.9787 25.0181 15.5298 24.6468 16.0967 24.3012C16.6656 23.9544 17.2315 23.6007 17.7938 23.2405C18.3567 22.88 18.9082 22.5494 19.4702 22.1876C19.5851 22.1137 19.7579 21.9954 19.9222 21.9629C20.2394 21.9 20.2891 22.0733 20.1081 22.2387L18.6569 23.544C18.5875 23.6017 18.5561 23.6365 18.4841 23.7046L18.1316 24.0205C17.9018 24.2048 17.4969 24.6116 17.2197 24.835C17.149 24.892 17.1176 24.9337 17.0479 24.9972L14.871 26.9415C14.5362 27.217 13.8315 27.8951 13.4197 28.2468C13.298 28.3507 12.9386 28.651 12.9164 28.7751C12.8565 29.1083 12.8509 29.7088 12.8254 30.0781C12.7962 30.5015 12.6427 32.3631 12.6539 32.6191L12.6529 32.6194Z" fill="white"/>
<path fill-rule="evenodd" clip-rule="evenodd" d="M6.5251 2.32356C9.00768 1.81323 9.63348 5.53541 7.27822 6.02686C4.81692 6.54078 3.83862 2.87559 6.5251 2.32356ZM23.8344 2.32356C26.317 1.81323 26.9428 5.53541 24.5875 6.02686C22.1262 6.54078 21.1479 2.87559 23.8344 2.32356ZM22.9929 8.35025L22.9936 11.0687C23.8115 11.4917 24.6494 12.0053 25.3144 12.5053L25.3203 8.30791C26.7186 7.47026 28.7112 6.57725 28.3669 3.62107C27.8052 -1.20191 20.4566 -1.23415 19.9343 3.68718C19.5945 6.88828 22.1023 7.68554 22.9929 8.34992V8.35025ZM5.68361 8.35025L5.68492 12.5157L5.72158 12.4886C6.41906 11.9741 7.1617 11.5057 8.00712 11.0693L8.01105 8.30823C9.40928 7.47059 11.4019 6.57758 11.0576 3.62139C10.4959 -1.20158 3.14736 -1.23382 2.62499 3.68751C2.28525 6.8886 4.79303 7.68586 5.68361 8.35025Z" fill="#0499E4"/>
</g>
<defs>
<clipPath id="clip0_35_1693">
<rect width="31" height="41" fill="white"/>
</clipPath>
</defs>
</svg>
