<svg width="23" height="31" viewBox="0 0 23 31" fill="none" xmlns="http://www.w3.org/2000/svg">
<path fill-rule="evenodd" clip-rule="evenodd" d="M9.38774 24.2016C9.37948 24.0117 9.49313 22.6305 9.51498 22.3164C9.53392 22.0424 9.53805 21.5968 9.58249 21.3496C9.599 21.2575 9.86564 21.035 9.95597 20.9577C10.2615 20.6969 10.7843 20.1936 11.0327 19.9892L12.6478 18.5467C12.6995 18.4995 12.7226 18.4686 12.7753 18.4263C12.981 18.2606 13.2814 17.9588 13.4518 17.822L13.7134 17.5876C13.7668 17.5371 13.7904 17.5113 13.8416 17.4685L14.9183 16.5C15.0526 16.3773 15.0157 16.249 14.7804 16.2954C14.6585 16.3195 14.5303 16.4072 14.445 16.4621C14.0281 16.7308 13.6192 16.9758 13.2012 17.2433C12.784 17.5105 12.3644 17.773 11.9421 18.0303C11.5215 18.2869 11.1126 18.5621 10.6855 18.8192L8.18181 20.3867C8.03223 20.4821 8.02543 20.5372 7.81562 20.4681C6.94335 20.1803 5.95234 19.9211 5.10363 19.6251C4.88192 19.5477 4.55215 19.3716 4.73427 19.078C4.84816 18.8944 5.12038 18.7818 5.35788 18.6897C5.85278 18.4978 6.33383 18.3193 6.82218 18.1284C9.75393 16.9828 12.7347 15.8694 15.6682 14.7337C16.149 14.5476 16.8389 14.1458 17.1153 14.7161C17.2925 15.0819 17.015 16.0098 16.9278 16.4213L15.3188 23.9658C15.2585 24.2535 15.2139 24.5196 15.0397 24.6996C14.8331 24.9132 14.5546 24.876 14.2884 24.7433C14.0572 24.6281 11.4854 22.66 11.3423 22.6087C11.2022 22.7627 11.0281 22.8997 10.8749 23.0475L9.972 23.921C9.85374 24.0394 9.6636 24.2294 9.38701 24.2018L9.38774 24.2016ZM0.0106297 19.4533C0.112864 21.771 0.938748 24.0581 2.26366 25.7908C3.51621 27.4286 5.08978 28.7329 7.11504 29.5554C8.55554 30.1404 10.2095 30.4857 11.9798 30.4089C14.3751 30.3047 16.5662 29.4943 18.3571 28.166C19.2704 27.4888 20.21 26.5681 20.8518 25.6415C20.9523 25.4963 21.038 25.3737 21.1374 25.2247C23.3224 21.9447 23.6252 17.4956 21.8338 13.9361C20.9703 12.2202 20.007 11.1184 18.608 9.97547C17.8945 9.39265 16.7731 8.74822 15.8921 8.39302C12.8372 7.16142 9.38021 7.23681 6.42295 8.70376C5.75345 9.03576 5.17672 9.3941 4.63787 9.79135C4.21072 10.1064 4.00407 10.3104 3.65535 10.6064C3.4045 10.8193 2.99994 11.2624 2.78139 11.5086C0.92345 13.6026 -0.116373 16.581 0.0103869 19.4533H0.0106297Z" fill="white"/>
<path fill-rule="evenodd" clip-rule="evenodd" d="M4.84151 1.72394C6.68342 1.3453 7.14772 4.10691 5.40027 4.47154C3.57415 4.85283 2.84831 2.1335 4.84151 1.72394ZM17.6839 1.72394C19.5258 1.3453 19.9901 4.10691 18.2426 4.47154C16.4165 4.85283 15.6907 2.1335 17.6839 1.72394ZM17.0596 6.19534L17.06 8.21225C17.6669 8.52613 18.2885 8.90719 18.782 9.27809L18.7864 6.16393C19.8238 5.54245 21.3021 4.8799 21.0467 2.6866C20.63 -0.891736 15.1778 -0.915658 14.7902 2.73565C14.5382 5.11066 16.3988 5.70217 17.0596 6.1951V6.19534ZM4.21718 6.19534L4.21815 9.28582L4.24534 9.26577C4.76283 8.88399 5.31382 8.53652 5.94107 8.21273L5.94398 6.16417C6.98138 5.5427 8.45976 4.88014 8.2043 2.68684C7.78759 -0.891495 2.33544 -0.915416 1.94787 2.73589C1.69581 5.1109 3.55642 5.70241 4.21718 6.19534Z" fill="white"/>
</svg>
