<svg width="26" height="26" viewBox="0 0 26 26" fill="none" xmlns="http://www.w3.org/2000/svg">
<circle cx="13" cy="13" r="12" stroke="white" stroke-width="2"/>
<path fill-rule="evenodd" clip-rule="evenodd" d="M10.3415 9.53577C10.6467 9.74162 10.8601 9.62737 11.087 9.98916C11.4063 10.4986 11.3897 12.6019 11.0974 13.1603C10.5092 14.2827 8.76316 10.5928 8.53108 10.0797C8.39246 9.77353 8.29849 9.48276 8.01657 9.37212C7.73258 9.26096 6.08419 9.31345 5.65067 9.31448C5.24831 9.31551 4.88281 9.36079 5.03545 9.84609C5.13149 10.1508 6.05044 11.9437 6.22696 12.2916C6.66775 13.1619 7.50155 14.5009 8.09186 15.2507C9.29999 16.7869 10.4832 17.7627 12.6503 17.9551C13.0194 17.9881 13.4202 17.9994 13.8049 17.9479C14.632 17.8373 14.1761 17.1055 14.551 16.2898C14.9674 15.3845 15.662 16.246 15.9491 16.5224C16.0597 16.6289 16.1168 16.7349 16.2264 16.8394C16.3655 16.9717 16.4169 17.0329 16.5327 17.1652C17.3857 18.1424 17.9957 17.9742 19.3425 17.9742C19.912 17.9742 21.251 18.2155 20.9566 17.2228C20.7837 16.6392 19.7147 15.5997 19.3082 15.2271C19.1037 15.0397 18.9079 14.8375 18.7106 14.6358C18.1281 14.0398 18.41 13.7671 18.9069 13.0975C19.3861 12.4517 20.0314 11.6571 20.4488 11.0014C20.6004 10.7637 20.7386 10.5146 20.8564 10.2254C20.9987 9.87645 21.1383 9.52496 20.7323 9.37829C20.3544 9.24191 18.8882 9.30624 18.3721 9.30573C16.7814 9.3047 17.596 9.40505 16.1137 11.8804C15.8557 12.3112 15.3983 12.9292 15.0499 13.2308C14.7415 13.4974 14.4824 13.2272 14.3838 12.9339C14.2068 12.4084 14.4487 10.0561 14.2665 9.43439C14.1621 9.07826 13.8755 8.99798 13.4856 9.00004L11.0584 9.00776C10.7173 9.03709 10.3638 9.26096 10.3415 9.53474V9.53577Z" fill="white"/>
</svg>
