<svg width="26" height="18" viewBox="0 0 26 18" fill="none" xmlns="http://www.w3.org/2000/svg">
<g clip-path="url(#clip0_38_2287)">
<path fill-rule="evenodd" clip-rule="evenodd" d="M9.55374 13.6821C9.75688 13.6372 13.1939 11.6468 13.6731 11.3679C14.3549 10.9708 15.0459 10.6011 15.7207 10.2029C16.0659 9.99901 17.6234 9.15402 17.7931 9.0035C17.644 8.81813 11.3014 5.2813 10.6137 4.87834C10.3906 4.7479 9.75904 4.35814 9.55644 4.30005L9.55374 13.6821ZM13.5597 17.9171C15.2507 17.9171 16.9443 17.8601 18.6256 17.7782C20.6553 17.6795 23.5943 17.8295 24.8449 16.2419C26.121 14.6227 25.9535 9.28446 25.8363 6.88309C25.7282 4.67449 25.8709 1.90766 23.7455 0.888383C22.4127 0.249355 20.5446 0.304808 18.9384 0.227702C14.8347 0.0307127 11.1307 0.0370501 7.02754 0.229287C5.40626 0.305336 3.58562 0.248827 2.23284 0.899473C0.122624 1.91505 0.266871 4.82184 0.160982 6.97499C0.0464492 9.30401 -0.116166 14.6254 1.15612 16.2409C2.40625 17.8279 5.34683 17.679 7.37546 17.7777C9.53051 17.8823 11.4171 17.9171 13.5597 17.9171Z" fill="white" stroke="white" stroke-width="0.756155" stroke-miterlimit="22.9256"/>
</g>
<defs>
<clipPath id="clip0_38_2287">
<rect width="26" height="18" fill="white"/>
</clipPath>
</defs>
</svg>
